<svg xmlns="http://www.w3.org/2000/svg" width="45.999" height="46" viewBox="0 0 45.999 46">
  <g id="playButton" transform="translate(3779.118 -14781)">
    <circle id="Ellipse_56" data-name="Ellipse 56" cx="22.999" cy="22.999" r="22.999" transform="translate(-3779.118 14781)" fill="#191919" opacity="0.6"/>
    <path id="Union_1" data-name="Union 1" d="M0,23A23,23,0,1,1,23,46,23.026,23.026,0,0,1,0,23Zm2.421,0A20.579,20.579,0,1,0,23,2.421,20.6,20.6,0,0,0,2.421,23Zm16.893,7.408V15.736a1.169,1.169,0,0,1,.726-1.082,1.211,1.211,0,0,1,1.393.229l7.266,7.26a1.211,1.211,0,0,1,0,1.712l-7.263,7.263a1.208,1.208,0,0,1-.1.087,1.169,1.169,0,0,1-2.025-.8Zm2.339-2.934L26.127,23l-4.474-4.473Z" transform="translate(-3779.118 14781)" fill="#fff"/>
  </g>
</svg>
